<mxfile host="Electron" modified="2023-06-19T09:08:20.477Z" agent="Mozilla/5.0 (Windows NT 10.0; Win64; x64) AppleWebKit/537.36 (KHTML, like Gecko) draw.io/21.1.2 Chrome/106.0.5249.199 Electron/21.4.3 Safari/537.36" etag="45SSNmrUFhDzyCvlHhNm" version="21.1.2" type="device">
  <diagram name="Page-1" id="e7e014a7-5840-1c2e-5031-d8a46d1fe8dd">
    <mxGraphModel dx="1276" dy="1432" grid="1" gridSize="10" guides="1" tooltips="1" connect="1" arrows="1" fold="1" page="1" pageScale="1" pageWidth="1169" pageHeight="826" background="none" math="0" shadow="0">
      <root>
        <mxCell id="0" />
        <mxCell id="1" parent="0" />
        <mxCell id="T-xKpgQXaRms_ukUQmKO-41" value="User selects a week and a department" style="rounded=1;whiteSpace=wrap;html=1;" parent="1" vertex="1">
          <mxGeometry x="230" y="-60" width="120" height="48" as="geometry" />
        </mxCell>
        <mxCell id="5" value="" style="ellipse;shape=startState;fillColor=#000000;strokeColor=#ff0000;" parent="1" vertex="1">
          <mxGeometry x="210" y="-140" width="30" height="30" as="geometry" />
        </mxCell>
        <mxCell id="6" value="" style="edgeStyle=elbowEdgeStyle;elbow=horizontal;verticalAlign=bottom;endArrow=open;endSize=8;strokeColor=#FF0000;endFill=1;rounded=0" parent="1" source="5" edge="1" target="T-xKpgQXaRms_ukUQmKO-41">
          <mxGeometry x="264.5" y="168" as="geometry">
            <mxPoint x="280" y="238" as="targetPoint" />
          </mxGeometry>
        </mxCell>
        <mxCell id="9" value="" style="endArrow=open;strokeColor=#FF0000;endFill=1;rounded=0;" parent="1" edge="1">
          <mxGeometry relative="1" as="geometry">
            <mxPoint x="290" y="-10" as="sourcePoint" />
            <mxPoint x="290" y="60" as="targetPoint" />
          </mxGeometry>
        </mxCell>
        <mxCell id="cBYqTsCGMWdTnqqJnTBH-40" value="" style="endArrow=open;strokeColor=#FF0000;endFill=1;rounded=0;exitX=0.5;exitY=1;exitDx=0;exitDy=0;" edge="1" parent="1" source="cBYqTsCGMWdTnqqJnTBH-41" target="cBYqTsCGMWdTnqqJnTBH-42">
          <mxGeometry relative="1" as="geometry">
            <mxPoint x="480" y="108" as="sourcePoint" />
            <mxPoint x="510" y="196" as="targetPoint" />
          </mxGeometry>
        </mxCell>
        <mxCell id="cBYqTsCGMWdTnqqJnTBH-41" value="Application goes through employees and see if they are available" style="rounded=1;whiteSpace=wrap;html=1;" vertex="1" parent="1">
          <mxGeometry x="230" y="60" width="120" height="80" as="geometry" />
        </mxCell>
        <mxCell id="cBYqTsCGMWdTnqqJnTBH-42" value="Employees available" style="rhombus;whiteSpace=wrap;html=1;" vertex="1" parent="1">
          <mxGeometry x="240" y="190" width="100" height="120" as="geometry" />
        </mxCell>
        <mxCell id="cBYqTsCGMWdTnqqJnTBH-43" value="" style="endArrow=open;strokeColor=#FF0000;endFill=1;rounded=0;exitX=1;exitY=0.5;exitDx=0;exitDy=0;entryX=1;entryY=0.5;entryDx=0;entryDy=0;" edge="1" parent="1" source="cBYqTsCGMWdTnqqJnTBH-42" target="cBYqTsCGMWdTnqqJnTBH-41">
          <mxGeometry relative="1" as="geometry">
            <mxPoint x="430" y="250" as="sourcePoint" />
            <mxPoint x="430" y="300" as="targetPoint" />
            <Array as="points">
              <mxPoint x="390" y="250" />
              <mxPoint x="390" y="100" />
            </Array>
          </mxGeometry>
        </mxCell>
        <mxCell id="cBYqTsCGMWdTnqqJnTBH-44" value="No" style="text;html=1;align=center;verticalAlign=middle;resizable=0;points=[];autosize=1;strokeColor=none;fillColor=none;" vertex="1" parent="1">
          <mxGeometry x="360" y="245" width="40" height="30" as="geometry" />
        </mxCell>
        <mxCell id="cBYqTsCGMWdTnqqJnTBH-45" value="Yes" style="text;html=1;align=center;verticalAlign=middle;resizable=0;points=[];autosize=1;strokeColor=none;fillColor=none;" vertex="1" parent="1">
          <mxGeometry x="300" y="310" width="40" height="30" as="geometry" />
        </mxCell>
        <mxCell id="cBYqTsCGMWdTnqqJnTBH-46" value="" style="endArrow=open;strokeColor=#FF0000;endFill=1;rounded=0;exitX=0.5;exitY=1;exitDx=0;exitDy=0;" edge="1" parent="1">
          <mxGeometry relative="1" as="geometry">
            <mxPoint x="289.5" y="310" as="sourcePoint" />
            <mxPoint x="289.5" y="360" as="targetPoint" />
          </mxGeometry>
        </mxCell>
        <mxCell id="cBYqTsCGMWdTnqqJnTBH-47" value="Application orders employees by hours worked. -hours = +priority" style="rounded=1;whiteSpace=wrap;html=1;" vertex="1" parent="1">
          <mxGeometry x="230" y="360" width="120" height="80" as="geometry" />
        </mxCell>
        <mxCell id="cBYqTsCGMWdTnqqJnTBH-48" value="" style="endArrow=open;strokeColor=#FF0000;endFill=1;rounded=0;exitX=0.5;exitY=1;exitDx=0;exitDy=0;" edge="1" parent="1">
          <mxGeometry relative="1" as="geometry">
            <mxPoint x="289.5" y="440" as="sourcePoint" />
            <mxPoint x="289.5" y="490" as="targetPoint" />
          </mxGeometry>
        </mxCell>
        <mxCell id="cBYqTsCGMWdTnqqJnTBH-49" value="App filters so that every employee has its shifts regarding its contract." style="rounded=1;whiteSpace=wrap;html=1;" vertex="1" parent="1">
          <mxGeometry x="230" y="490" width="120" height="80" as="geometry" />
        </mxCell>
        <mxCell id="cBYqTsCGMWdTnqqJnTBH-50" value="Is employee a caretaker" style="rhombus;whiteSpace=wrap;html=1;" vertex="1" parent="1">
          <mxGeometry x="240" y="620" width="100" height="120" as="geometry" />
        </mxCell>
        <mxCell id="cBYqTsCGMWdTnqqJnTBH-51" value="" style="endArrow=open;strokeColor=#FF0000;endFill=1;rounded=0;exitX=0.5;exitY=1;exitDx=0;exitDy=0;" edge="1" parent="1">
          <mxGeometry relative="1" as="geometry">
            <mxPoint x="289.5" y="570" as="sourcePoint" />
            <mxPoint x="289.5" y="620" as="targetPoint" />
          </mxGeometry>
        </mxCell>
        <mxCell id="cBYqTsCGMWdTnqqJnTBH-52" value="" style="endArrow=open;strokeColor=#FF0000;endFill=1;rounded=0;" edge="1" parent="1" source="cBYqTsCGMWdTnqqJnTBH-50">
          <mxGeometry relative="1" as="geometry">
            <mxPoint x="240" y="720" as="sourcePoint" />
            <mxPoint x="170" y="780" as="targetPoint" />
          </mxGeometry>
        </mxCell>
        <mxCell id="cBYqTsCGMWdTnqqJnTBH-54" value="" style="endArrow=open;strokeColor=#FF0000;endFill=1;rounded=0;" edge="1" parent="1" source="cBYqTsCGMWdTnqqJnTBH-50">
          <mxGeometry relative="1" as="geometry">
            <mxPoint x="400" y="760" as="sourcePoint" />
            <mxPoint x="400" y="780" as="targetPoint" />
          </mxGeometry>
        </mxCell>
        <mxCell id="cBYqTsCGMWdTnqqJnTBH-55" value="Employees are scheduled automatically" style="rounded=1;whiteSpace=wrap;html=1;" vertex="1" parent="1">
          <mxGeometry x="110" y="780" width="120" height="80" as="geometry" />
        </mxCell>
        <mxCell id="cBYqTsCGMWdTnqqJnTBH-56" value="Application sees how many caretakers are needed for each location" style="rounded=1;whiteSpace=wrap;html=1;" vertex="1" parent="1">
          <mxGeometry x="350" y="780" width="120" height="80" as="geometry" />
        </mxCell>
        <mxCell id="cBYqTsCGMWdTnqqJnTBH-57" value="" style="endArrow=open;strokeColor=#FF0000;endFill=1;rounded=0;" edge="1" parent="1">
          <mxGeometry relative="1" as="geometry">
            <mxPoint x="410" y="860" as="sourcePoint" />
            <mxPoint x="410" y="920" as="targetPoint" />
          </mxGeometry>
        </mxCell>
        <mxCell id="cBYqTsCGMWdTnqqJnTBH-58" value="Care takers are scheduled automatically" style="rounded=1;whiteSpace=wrap;html=1;" vertex="1" parent="1">
          <mxGeometry x="350" y="920" width="120" height="80" as="geometry" />
        </mxCell>
        <mxCell id="cBYqTsCGMWdTnqqJnTBH-59" value="" style="endArrow=open;strokeColor=#FF0000;endFill=1;rounded=0;exitX=0;exitY=0.5;exitDx=0;exitDy=0;" edge="1" parent="1" source="cBYqTsCGMWdTnqqJnTBH-58">
          <mxGeometry relative="1" as="geometry">
            <mxPoint x="270" y="940" as="sourcePoint" />
            <mxPoint x="190" y="960" as="targetPoint" />
          </mxGeometry>
        </mxCell>
        <mxCell id="cBYqTsCGMWdTnqqJnTBH-60" value="" style="endArrow=open;strokeColor=#FF0000;endFill=1;rounded=0;" edge="1" parent="1">
          <mxGeometry relative="1" as="geometry">
            <mxPoint x="169.5" y="860" as="sourcePoint" />
            <mxPoint x="169.5" y="920" as="targetPoint" />
          </mxGeometry>
        </mxCell>
        <mxCell id="cBYqTsCGMWdTnqqJnTBH-61" value="" style="ellipse;shape=startState;fillColor=#000000;strokeColor=#ff0000;" vertex="1" parent="1">
          <mxGeometry x="150" y="940" width="30" height="30" as="geometry" />
        </mxCell>
        <mxCell id="cBYqTsCGMWdTnqqJnTBH-62" value="No" style="text;html=1;align=center;verticalAlign=middle;resizable=0;points=[];autosize=1;strokeColor=none;fillColor=none;" vertex="1" parent="1">
          <mxGeometry x="180" y="725" width="40" height="30" as="geometry" />
        </mxCell>
        <mxCell id="cBYqTsCGMWdTnqqJnTBH-63" value="Yes" style="text;html=1;align=center;verticalAlign=middle;resizable=0;points=[];autosize=1;strokeColor=none;fillColor=none;" vertex="1" parent="1">
          <mxGeometry x="340" y="715" width="40" height="30" as="geometry" />
        </mxCell>
      </root>
    </mxGraphModel>
  </diagram>
</mxfile>
